<svg xmlns="http://www.w3.org/2000/svg" viewBox="0 0 53.64 53.57"><defs><style>.cls-1{fill:#333;}</style></defs><title>dribble</title><g id="Layer_2" data-name="Layer 2"><g id="Layer_1-2" data-name="Layer 1"><path class="cls-1" d="M26.82,0A26.78,26.78,0,1,0,53.64,26.78,26.83,26.83,0,0,0,26.82,0ZM44.55,12.35A22.75,22.75,0,0,1,49.72,26.6a53.6,53.6,0,0,0-16-.74l-.49-1.18c-.48-1.12-1-2.22-1.52-3.31C40.23,17.92,44.07,13,44.55,12.35ZM26.82,3.94A22.83,22.83,0,0,1,42,9.71c-.41.59-3.86,5.21-12,8.26A122.09,122.09,0,0,0,21.45,4.58,22.91,22.91,0,0,1,26.82,3.94ZM17.08,6.11a146,146,0,0,1,8.49,13.23A85.55,85.55,0,0,1,4.4,22.13,23,23,0,0,1,17.08,6.11ZM3.91,26.82c0-.23,0-.47,0-.7a84.61,84.61,0,0,0,23.54-3.26c.66,1.28,1.28,2.58,1.86,3.88l-.9.27C16.61,30.83,10.32,41.23,9.8,42.11A22.77,22.77,0,0,1,3.91,26.82ZM26.82,49.69a22.81,22.81,0,0,1-14.06-4.83c.41-.84,5.05-9.79,18-14.29l.15-.05a95,95,0,0,1,4.89,17.35A22.81,22.81,0,0,1,26.82,49.69Zm12.8-3.91a98.63,98.63,0,0,0-4.45-16.31,33.66,33.66,0,0,1,14.27,1A22.91,22.91,0,0,1,39.62,45.78Z"/></g></g></svg>