<svg xmlns="http://www.w3.org/2000/svg" viewBox="0 0 53.27 53.27"><defs><style>.cls-1{fill:#333;}</style></defs><title>Asset 1</title><g id="Layer_2" data-name="Layer 2"><g id="Layer_1-2" data-name="Layer 1"><path class="cls-1" d="M26.63,4.8c7.11,0,8,0,10.76.16a14.74,14.74,0,0,1,4.95.92,8.25,8.25,0,0,1,3.06,2,8.25,8.25,0,0,1,2,3.06,14.74,14.74,0,0,1,.92,4.95c.13,2.81.16,3.65.16,10.76s0,8-.16,10.76a14.74,14.74,0,0,1-.92,4.95,8.82,8.82,0,0,1-5.05,5.05,14.74,14.74,0,0,1-4.95.92c-2.81.13-3.65.16-10.76.16s-8,0-10.76-.16a14.74,14.74,0,0,1-4.95-.92,8.25,8.25,0,0,1-3.06-2,8.26,8.26,0,0,1-2-3.06A14.74,14.74,0,0,1,5,37.4c-.13-2.81-.16-3.65-.16-10.76s0-8,.16-10.76a14.74,14.74,0,0,1,.92-4.95,8.25,8.25,0,0,1,2-3.06,8.25,8.25,0,0,1,3.06-2A14.74,14.74,0,0,1,15.87,5c2.81-.13,3.65-.16,10.76-.16m0-4.8c-7.23,0-8.14,0-11,.16A19.55,19.55,0,0,0,9.19,1.4,13.05,13.05,0,0,0,4.47,4.47,13.06,13.06,0,0,0,1.4,9.19,19.55,19.55,0,0,0,.16,15.65C0,18.49,0,19.4,0,26.63s0,8.14.16,11A19.55,19.55,0,0,0,1.4,44.08,13.06,13.06,0,0,0,4.47,48.8a13.05,13.05,0,0,0,4.72,3.07,19.55,19.55,0,0,0,6.47,1.24c2.84.13,3.75.16,11,.16s8.14,0,11-.16a19.55,19.55,0,0,0,6.47-1.24,13.62,13.62,0,0,0,7.79-7.79,19.55,19.55,0,0,0,1.24-6.47c.13-2.84.16-3.75.16-11s0-8.14-.16-11a19.55,19.55,0,0,0-1.24-6.47A13.06,13.06,0,0,0,48.8,4.47,13.05,13.05,0,0,0,44.08,1.4,19.55,19.55,0,0,0,37.62.16C34.78,0,33.87,0,26.63,0"/><path class="cls-1" d="M26.63,13A13.68,13.68,0,1,0,40.31,26.63,13.68,13.68,0,0,0,26.63,13m0,22.56a8.88,8.88,0,1,1,8.88-8.88,8.88,8.88,0,0,1-8.88,8.88"/><path class="cls-1" d="M44,12.42a3.2,3.2,0,1,1-3.2-3.2,3.2,3.2,0,0,1,3.2,3.2"/></g></g></svg>