<svg xmlns="http://www.w3.org/2000/svg" viewBox="0 0 53.15 53.14"><defs><style>.cls-1{fill:#c6c6c6;}</style></defs><title>linkgray</title><g id="Layer_2" data-name="Layer 2"><g id="Layer_1-2" data-name="Layer 1"><path class="cls-1" d="M39.33,32a2.49,2.49,0,0,1-1.76-4.25l9.56-9.56L35,6,25.6,15.37a2.49,2.49,0,0,1-3.52-3.52L33.2.73a2.49,2.49,0,0,1,3.52,0L52.42,16.42a2.49,2.49,0,0,1,0,3.52L41.09,31.27A2.48,2.48,0,0,1,39.33,32Z"/><path class="cls-1" d="M18.19,53.14a2.49,2.49,0,0,1-1.76-.73L.73,36.72a2.49,2.49,0,0,1,0-3.52L12.06,21.87a2.49,2.49,0,1,1,3.52,3.52L6,35,18.19,47.13l9.35-9.35a2.49,2.49,0,1,1,3.52,3.53L19.95,52.41A2.49,2.49,0,0,1,18.19,53.14Z"/><path class="cls-1" d="M21.58,34.05a2.49,2.49,0,0,1-1.76-4.25l10-10a2.49,2.49,0,0,1,3.53,3.52l-10,10A2.48,2.48,0,0,1,21.58,34.05Z"/></g></g></svg>